{
	"asset":{
		"generator":"Khronos glTF Blender I/O v3.6.27",
		"version":"2.0"
	},
	"scene":0,
	"scenes":[
		{
			"name":"Scene",
			"nodes":[
				0,
				1,
				2,
				3,
				4,
				5,
				6,
				7,
				8
			]
		}
	],
	"nodes":[
		{
			"mesh":0,
			"name":"bred down.001",
			"scale":[
				1.2593644857406616,
				0.22171837091445923,
				1.186219573020935
			]
		},
		{
			"mesh":1,
			"name":"bred up.001",
			"scale":[
				0.948285698890686,
				1.0063444375991821,
				0.9592897891998291
			]
		},
		{
			"mesh":2,
			"name":"green .002",
			"rotation":[
				0,
				0.995715320110321,
				0,
				0.09247168153524399
			],
			"scale":[
				1.4339241981506348,
				1.4339241981506348,
				1.4339241981506348
			]
		},
		{
			"mesh":3,
			"name":"meat.001",
			"scale":[
				1.0465503931045532,
				0.2795751392841339,
				1.0465503931045532
			]
		},
		{
			"mesh":4,
			"name":"Plane.003",
			"scale":[
				1.1362682580947876,
				1.1362682580947876,
				1.1362682580947876
			]
		},
		{
			"mesh":5,
			"name":"tomato.004",
			"rotation":[
				0.02477061189711094,
				-0.28163424134254456,
				-0.015965331345796585,
				0.9590693116188049
			],
			"scale":[
				0.5842660665512085,
				0.10914144665002823,
				0.5842660069465637
			]
		},
		{
			"mesh":6,
			"name":"tomato.005",
			"rotation":[
				0.024786775931715965,
				0.01499977707862854,
				0.05403933301568031,
				0.9981184005737305
			],
			"scale":[
				0.5340341925621033,
				0.0997580885887146,
				0.5340341925621033
			]
		},
		{
			"mesh":7,
			"name":"tomato.006",
			"rotation":[
				-0.03773975744843483,
				0.007952844724059105,
				0.03344293311238289,
				0.9986961483955383
			],
			"scale":[
				0.5340341925621033,
				0.0997580960392952,
				0.5340341925621033
			]
		},
		{
			"mesh":8,
			"name":"tomato.007",
			"rotation":[
				-0.05936524271965027,
				-0.00142615323420614,
				-0.021279020234942436,
				0.9980084896087646
			],
			"scale":[
				0.5340341925621033,
				0.0997580960392952,
				0.5340341925621033
			]
		}
	],
	"materials":[
		{
			"doubleSided":true,
			"name":"bred.002",
			"pbrMetallicRoughness":{
				"baseColorFactor":[
					0.6306737065315247,
					0.14996623992919922,
					0.03596226125955582,
					1
				],
				"metallicFactor":0,
				"roughnessFactor":0.5
			}
		},
		{
			"doubleSided":true,
			"name":"bred.001",
			"pbrMetallicRoughness":{
				"baseColorFactor":[
					0.6306737065315247,
					0.14996623992919922,
					0.03596226125955582,
					1
				],
				"metallicFactor":0,
				"roughnessFactor":0.5
			}
		},
		{
			"doubleSided":true,
			"name":"sumsum.001",
			"pbrMetallicRoughness":{
				"baseColorFactor":[
					0.9133222699165344,
					0.8341211080551147,
					0.3321865499019623,
					1
				],
				"metallicFactor":0,
				"roughnessFactor":0.5
			}
		},
		{
			"doubleSided":true,
			"name":"green.001",
			"pbrMetallicRoughness":{
				"baseColorFactor":[
					0.27049776911735535,
					0.5583406686782837,
					0.033104777336120605,
					1
				],
				"metallicFactor":0,
				"roughnessFactor":0.22363635897636414
			}
		},
		{
			"doubleSided":true,
			"name":"meat.001",
			"pbrMetallicRoughness":{
				"baseColorFactor":[
					0.17956122756004333,
					0.032500408589839935,
					0.032500408589839935,
					1
				],
				"metallicFactor":0,
				"roughnessFactor":0.43454545736312866
			}
		},
		{
			"doubleSided":true,
			"name":"chees.001",
			"pbrMetallicRoughness":{
				"baseColorFactor":[
					1,
					0.3994274437427521,
					0,
					1
				],
				"metallicFactor":0,
				"roughnessFactor":0.9618182182312012
			}
		},
		{
			"doubleSided":true,
			"name":"tomato.001",
			"pbrMetallicRoughness":{
				"baseColorFactor":[
					0.8077866435050964,
					0.03290475904941559,
					0.011991217732429504,
					1
				],
				"metallicFactor":0,
				"roughnessFactor":0.5
			}
		},
		{
			"doubleSided":true,
			"name":"tomato.002",
			"pbrMetallicRoughness":{
				"baseColorFactor":[
					0.8077866435050964,
					0.03290475904941559,
					0.011991217732429504,
					1
				],
				"metallicFactor":0,
				"roughnessFactor":0.5
			}
		},
		{
			"doubleSided":true,
			"name":"tomato.003",
			"pbrMetallicRoughness":{
				"baseColorFactor":[
					0.8077866435050964,
					0.03290475904941559,
					0.011991217732429504,
					1
				],
				"metallicFactor":0,
				"roughnessFactor":0.5
			}
		},
		{
			"doubleSided":true,
			"name":"tomato.004",
			"pbrMetallicRoughness":{
				"baseColorFactor":[
					0.8077866435050964,
					0.03290475904941559,
					0.011991217732429504,
					1
				],
				"metallicFactor":0,
				"roughnessFactor":0.5
			}
		}
	],
	"meshes":[
		{
			"name":"Mesh_1",
			"primitives":[
				{
					"attributes":{
						"POSITION":0,
						"NORMAL":1,
						"TEXCOORD_0":2
					},
					"indices":3,
					"material":0
				}
			]
		},
		{
			"name":"Mesh_0",
			"primitives":[
				{
					"attributes":{
						"POSITION":4,
						"NORMAL":5
					},
					"indices":6,
					"material":1
				},
				{
					"attributes":{
						"POSITION":7,
						"NORMAL":8
					},
					"indices":9,
					"material":2
				}
			]
		},
		{
			"name":"Mesh_4",
			"primitives":[
				{
					"attributes":{
						"POSITION":10,
						"NORMAL":11,
						"TEXCOORD_0":12
					},
					"indices":13,
					"material":3
				}
			]
		},
		{
			"name":"Mesh_2",
			"primitives":[
				{
					"attributes":{
						"POSITION":14,
						"NORMAL":15,
						"TEXCOORD_0":16
					},
					"indices":3,
					"material":4
				}
			]
		},
		{
			"name":"Mesh_5",
			"primitives":[
				{
					"attributes":{
						"POSITION":17,
						"NORMAL":18,
						"TEXCOORD_0":19
					},
					"indices":20,
					"material":5
				}
			]
		},
		{
			"name":"Mesh_3",
			"primitives":[
				{
					"attributes":{
						"POSITION":21,
						"NORMAL":22,
						"TEXCOORD_0":23
					},
					"indices":24,
					"material":6
				}
			]
		},
		{
			"name":"Mesh_6",
			"primitives":[
				{
					"attributes":{
						"POSITION":25,
						"NORMAL":26,
						"TEXCOORD_0":27
					},
					"indices":24,
					"material":7
				}
			]
		},
		{
			"name":"Mesh_7",
			"primitives":[
				{
					"attributes":{
						"POSITION":28,
						"NORMAL":29,
						"TEXCOORD_0":30
					},
					"indices":24,
					"material":8
				}
			]
		},
		{
			"name":"Mesh_8",
			"primitives":[
				{
					"attributes":{
						"POSITION":31,
						"NORMAL":32,
						"TEXCOORD_0":33
					},
					"indices":24,
					"material":9
				}
			]
		}
	],
	"accessors":[
		{
			"bufferView":0,
			"componentType":5126,
			"count":260,
			"max":[
				1,
				2.2748401165008545,
				1
			],
			"min":[
				-1,
				0.9479105472564697,
				-1
			],
			"type":"VEC3"
		},
		{
			"bufferView":1,
			"componentType":5126,
			"count":260,
			"type":"VEC3"
		},
		{
			"bufferView":2,
			"componentType":5126,
			"count":260,
			"type":"VEC2"
		},
		{
			"bufferView":3,
			"componentType":5123,
			"count":1140,
			"type":"SCALAR"
		},
		{
			"bufferView":4,
			"componentType":5126,
			"count":4014,
			"max":[
				1.2589086294174194,
				2.083894968032837,
				1.258908748626709
			],
			"min":[
				-1.2589086294174194,
				1.1910465955734253,
				-1.2589086294174194
			],
			"type":"VEC3"
		},
		{
			"bufferView":5,
			"componentType":5126,
			"count":4014,
			"type":"VEC3"
		},
		{
			"bufferView":6,
			"componentType":5123,
			"count":23040,
			"type":"SCALAR"
		},
		{
			"bufferView":7,
			"componentType":5126,
			"count":48960,
			"max":[
				1.259111762046814,
				2.0995609760284424,
				1.1668850183486938
			],
			"min":[
				-1.2638887166976929,
				1.230512261390686,
				-1.235540747642517
			],
			"type":"VEC3"
		},
		{
			"bufferView":8,
			"componentType":5126,
			"count":48960,
			"type":"VEC3"
		},
		{
			"bufferView":9,
			"componentType":5123,
			"count":292536,
			"type":"SCALAR"
		},
		{
			"bufferView":10,
			"componentType":5126,
			"count":6092,
			"max":[
				0.9466084241867065,
				0.5327767133712769,
				0.9479514360427856
			],
			"min":[
				-0.9560031294822693,
				0.29728496074676514,
				-0.9483968019485474
			],
			"type":"VEC3"
		},
		{
			"bufferView":11,
			"componentType":5126,
			"count":6092,
			"type":"VEC3"
		},
		{
			"bufferView":12,
			"componentType":5126,
			"count":6092,
			"type":"VEC2"
		},
		{
			"bufferView":13,
			"componentType":5123,
			"count":35592,
			"type":"SCALAR"
		},
		{
			"bufferView":14,
			"componentType":5126,
			"count":260,
			"max":[
				1,
				3.6392982006073,
				1
			],
			"min":[
				-1,
				2.312368631362915,
				-1
			],
			"type":"VEC3"
		},
		{
			"bufferView":15,
			"componentType":5126,
			"count":260,
			"type":"VEC3"
		},
		{
			"bufferView":16,
			"componentType":5126,
			"count":260,
			"type":"VEC2"
		},
		{
			"bufferView":17,
			"componentType":5126,
			"count":4667,
			"max":[
				0.9752788543701172,
				0.9784599542617798,
				1.0063658952713013
			],
			"min":[
				-1.0183244943618774,
				0.6032143831253052,
				-0.9877322912216187
			],
			"type":"VEC3"
		},
		{
			"bufferView":18,
			"componentType":5126,
			"count":4667,
			"type":"VEC3"
		},
		{
			"bufferView":19,
			"componentType":5126,
			"count":4667,
			"type":"VEC2"
		},
		{
			"bufferView":20,
			"componentType":5123,
			"count":22326,
			"type":"SCALAR"
		},
		{
			"bufferView":21,
			"componentType":5126,
			"count":2174,
			"max":[
				2.2945547103881836,
				11.30194091796875,
				1.57356858253479
			],
			"min":[
				0.2945547103881836,
				9.936519622802734,
				-0.42643141746520996
			],
			"type":"VEC3"
		},
		{
			"bufferView":22,
			"componentType":5126,
			"count":2174,
			"type":"VEC3"
		},
		{
			"bufferView":23,
			"componentType":5126,
			"count":2174,
			"type":"VEC2"
		},
		{
			"bufferView":24,
			"componentType":5123,
			"count":3612,
			"type":"SCALAR"
		},
		{
			"bufferView":25,
			"componentType":5126,
			"count":2174,
			"max":[
				-0.04523199796676636,
				13.206721305847168,
				1.2692070007324219
			],
			"min":[
				-2.045232057571411,
				11.841300010681152,
				-0.7307929992675781
			],
			"type":"VEC3"
		},
		{
			"bufferView":26,
			"componentType":5126,
			"count":2174,
			"type":"VEC3"
		},
		{
			"bufferView":27,
			"componentType":5126,
			"count":2174,
			"type":"VEC2"
		},
		{
			"bufferView":28,
			"componentType":5126,
			"count":2174,
			"max":[
				0.08860033750534058,
				13.072283744812012,
				-0.08350151777267456
			],
			"min":[
				-1.9113997220993042,
				11.706862449645996,
				-2.0835013389587402
			],
			"type":"VEC3"
		},
		{
			"bufferView":29,
			"componentType":5126,
			"count":2174,
			"type":"VEC3"
		},
		{
			"bufferView":30,
			"componentType":5126,
			"count":2174,
			"type":"VEC2"
		},
		{
			"bufferView":31,
			"componentType":5126,
			"count":2174,
			"max":[
				2.133527994155884,
				13.15821647644043,
				0.18385320901870728
			],
			"min":[
				0.13352787494659424,
				11.792795181274414,
				-1.816146731376648
			],
			"type":"VEC3"
		},
		{
			"bufferView":32,
			"componentType":5126,
			"count":2174,
			"type":"VEC3"
		},
		{
			"bufferView":33,
			"componentType":5126,
			"count":2174,
			"type":"VEC2"
		}
	],
	"bufferViews":[
		{
			"buffer":0,
			"byteLength":3120,
			"byteOffset":0,
			"target":34962
		},
		{
			"buffer":0,
			"byteLength":3120,
			"byteOffset":3120,
			"target":34962
		},
		{
			"buffer":0,
			"byteLength":2080,
			"byteOffset":6240,
			"target":34962
		},
		{
			"buffer":0,
			"byteLength":2280,
			"byteOffset":8320,
			"target":34963
		},
		{
			"buffer":0,
			"byteLength":48168,
			"byteOffset":10600,
			"target":34962
		},
		{
			"buffer":0,
			"byteLength":48168,
			"byteOffset":58768,
			"target":34962
		},
		{
			"buffer":0,
			"byteLength":46080,
			"byteOffset":106936,
			"target":34963
		},
		{
			"buffer":0,
			"byteLength":587520,
			"byteOffset":153016,
			"target":34962
		},
		{
			"buffer":0,
			"byteLength":587520,
			"byteOffset":740536,
			"target":34962
		},
		{
			"buffer":0,
			"byteLength":585072,
			"byteOffset":1328056,
			"target":34963
		},
		{
			"buffer":0,
			"byteLength":73104,
			"byteOffset":1913128,
			"target":34962
		},
		{
			"buffer":0,
			"byteLength":73104,
			"byteOffset":1986232,
			"target":34962
		},
		{
			"buffer":0,
			"byteLength":48736,
			"byteOffset":2059336,
			"target":34962
		},
		{
			"buffer":0,
			"byteLength":71184,
			"byteOffset":2108072,
			"target":34963
		},
		{
			"buffer":0,
			"byteLength":3120,
			"byteOffset":2179256,
			"target":34962
		},
		{
			"buffer":0,
			"byteLength":3120,
			"byteOffset":2182376,
			"target":34962
		},
		{
			"buffer":0,
			"byteLength":2080,
			"byteOffset":2185496,
			"target":34962
		},
		{
			"buffer":0,
			"byteLength":56004,
			"byteOffset":2187576,
			"target":34962
		},
		{
			"buffer":0,
			"byteLength":56004,
			"byteOffset":2243580,
			"target":34962
		},
		{
			"buffer":0,
			"byteLength":37336,
			"byteOffset":2299584,
			"target":34962
		},
		{
			"buffer":0,
			"byteLength":44652,
			"byteOffset":2336920,
			"target":34963
		},
		{
			"buffer":0,
			"byteLength":26088,
			"byteOffset":2381572,
			"target":34962
		},
		{
			"buffer":0,
			"byteLength":26088,
			"byteOffset":2407660,
			"target":34962
		},
		{
			"buffer":0,
			"byteLength":17392,
			"byteOffset":2433748,
			"target":34962
		},
		{
			"buffer":0,
			"byteLength":7224,
			"byteOffset":2451140,
			"target":34963
		},
		{
			"buffer":0,
			"byteLength":26088,
			"byteOffset":2458364,
			"target":34962
		},
		{
			"buffer":0,
			"byteLength":26088,
			"byteOffset":2484452,
			"target":34962
		},
		{
			"buffer":0,
			"byteLength":17392,
			"byteOffset":2510540,
			"target":34962
		},
		{
			"buffer":0,
			"byteLength":26088,
			"byteOffset":2527932,
			"target":34962
		},
		{
			"buffer":0,
			"byteLength":26088,
			"byteOffset":2554020,
			"target":34962
		},
		{
			"buffer":0,
			"byteLength":17392,
			"byteOffset":2580108,
			"target":34962
		},
		{
			"buffer":0,
			"byteLength":26088,
			"byteOffset":2597500,
			"target":34962
		},
		{
			"buffer":0,
			"byteLength":26088,
			"byteOffset":2623588,
			"target":34962
		},
		{
			"buffer":0,
			"byteLength":17392,
			"byteOffset":2649676,
			"target":34962
		}
	],
	"buffers":[
		{
			"byteLength":2667068,
			"uri":"data:application/octet-stream;base64,"
		}
	]
}
