<svg width="84" height="84" viewBox="0 0 84 84" fill="none" xmlns="http://www.w3.org/2000/svg">
<path d="M28.4991 28.0977C27.5638 27.1624 26.4101 26.7998 25.9221 27.2878C25.4341 27.7757 25.7967 28.9295 26.7319 29.8648C27.6672 30.8001 28.821 31.1627 29.309 30.6747C29.7969 30.1868 29.4344 29.033 28.4991 28.0977Z" fill="#FF8000"/>
<path d="M31.5604 22.8973C30.6251 23.8326 30.2625 24.9863 30.7505 25.4743C31.2385 25.9623 32.3922 25.5997 33.3275 24.6645C34.2628 23.7292 34.6254 22.5755 34.1374 22.0874C33.6493 21.5994 32.4956 21.962 31.5604 22.8973Z" fill="#FF8000"/>
<path d="M43.2381 22.5727C42.7501 22.0848 41.5964 22.4474 40.6611 23.3826C39.7258 24.3179 39.3631 25.4716 39.8511 25.9596C40.3391 26.4476 41.4929 26.085 42.4281 25.1498C43.3634 24.2145 43.7261 23.0607 43.2381 22.5727Z" fill="#FF8000"/>
<path d="M51.7799 22.5735C51.292 22.0855 50.1382 22.448 49.2029 23.3833C48.2676 24.3185 47.905 25.4723 48.393 25.9603C48.881 26.4483 50.0348 26.0857 50.97 25.1505C51.9053 24.2152 52.2679 23.0615 51.7799 22.5735Z" fill="#FF8000"/>
<path d="M46.2486 28.0976C45.3134 27.1623 44.1596 26.7997 43.6716 27.2877C43.1835 27.7757 43.5461 28.9295 44.4814 29.8648C45.4166 30.8001 46.5704 31.1627 47.0584 30.6747C47.5465 30.1867 47.1839 29.0329 46.2486 28.0976Z" fill="#FF8000"/>
<path d="M57.2685 28.4072C56.3332 27.4719 55.1794 27.1093 54.6914 27.5973C54.2034 28.0853 54.5659 29.2391 55.5012 30.1744C56.4365 31.1097 57.5903 31.4723 58.0783 30.9843C58.5663 30.4963 58.2037 29.3425 57.2685 28.4072Z" fill="#FF8000"/>
<path d="M37.149 28.0977C36.2137 27.1624 35.0599 26.7998 34.572 27.2878C34.084 27.7757 34.4466 28.9295 35.3818 29.8648C36.3171 30.8001 37.4708 31.1627 37.9588 30.6747C38.4468 30.1868 38.0842 29.033 37.149 28.0977Z" fill="#FF8000"/>
<path d="M70.8708 48.5508V45.7589C73.3895 45.2295 75.2661 43.253 75.2661 40.9022C75.2661 38.5403 73.3718 36.5561 70.8353 36.0379C70.6675 33.3525 69.8996 30.7491 68.5454 28.2837C67.0705 25.5988 64.9667 23.1933 62.2925 21.134C59.6426 19.0936 56.5624 17.4934 53.1376 16.378C49.6074 15.2283 45.8602 14.6453 42 14.6453C38.1398 14.6453 34.3926 15.2283 30.8624 16.378C27.4375 17.4934 24.3573 19.0936 21.7075 21.134C19.0332 23.1933 16.9294 25.5988 15.4546 28.2837C14.1004 30.749 13.3322 33.3525 13.1644 36.038C10.628 36.5562 8.73386 38.5404 8.73386 40.9022C8.73386 43.2808 10.6551 45.2763 13.2188 45.7772V48.5326C10.6551 49.0334 8.73386 51.0289 8.73386 53.4076C8.73386 55.7862 10.6551 57.7817 13.2188 58.2825V62.6193C13.2188 63.5963 13.4992 64.5374 14.0522 65.4163C14.556 66.2168 15.2638 66.9281 16.156 67.5305C17.8983 68.7069 20.1828 69.3547 22.5886 69.3547H61.5009C63.9068 69.3547 66.1912 68.7069 67.9335 67.5305C68.8258 66.9281 69.5336 66.2168 70.0373 65.4163C70.5904 64.5374 70.8708 63.5963 70.8708 62.6193V58.2643C73.3895 57.7349 75.2661 55.7584 75.2661 53.4076C75.2661 51.0567 73.3895 49.0802 70.8708 48.5508ZM15.7387 45.8985H68.3508V48.4112H15.7387V45.8985ZM42 17.1653C55.972 17.1653 67.4392 25.4625 68.2991 35.9059H15.7009C16.5607 25.4625 28.0279 17.1653 42 17.1653ZM11.2539 40.9022C11.2539 39.5599 12.7307 38.4259 14.4787 38.4259H69.5212C71.2693 38.4259 72.7461 39.5599 72.7461 40.9022C72.7461 42.2445 71.2693 43.3785 69.5212 43.3785H14.4787C12.7307 43.3785 11.2539 42.2445 11.2539 40.9022ZM66.5235 65.442C65.2125 66.3271 63.3819 66.8347 61.5009 66.8347H22.5886C20.7077 66.8347 18.877 66.3271 17.5661 65.442C16.3877 64.6464 15.7387 63.6439 15.7387 62.6193V58.4039H21.2064L23.2795 62.7781C23.4941 63.231 23.9456 63.4987 24.4186 63.4987C24.5807 63.4987 24.7453 63.4673 24.9037 63.4011L36.8668 58.4039H52.014C52.0222 58.5343 52.033 58.67 52.0472 58.8092C52.1896 60.207 52.5912 61.2709 53.2407 61.9715C53.8103 62.5857 54.5579 62.9103 55.4029 62.9103C56.2658 62.9103 57.0317 62.5809 57.6175 61.9577C58.5177 61.0001 58.8112 59.4973 58.8989 58.4039H61.3487C61.3888 58.9313 61.4581 59.5706 61.5773 60.2147C61.755 61.1739 62.0115 61.9598 62.3397 62.5506C63.0823 63.887 64.111 64.0866 64.658 64.0866C65.3674 64.0866 66.0082 63.8032 66.5113 63.2672C67.2341 62.497 67.657 61.2259 67.8041 59.381C67.8317 59.0348 67.8463 58.703 67.8531 58.4039H68.3508V62.6193C68.3508 63.6439 67.7018 64.6464 66.5235 65.442ZM23.9951 58.4039H30.3289L25.0418 60.6124L23.9951 58.4039ZM69.5212 55.8839H66.5772C66.2291 55.8839 65.8966 56.0279 65.6584 56.2816C65.4202 56.5354 65.2976 56.8764 65.3197 57.2238C65.3204 57.2341 65.3841 58.2722 65.2712 59.4142C65.1353 60.7894 64.8304 61.3742 64.684 61.5346C64.5549 61.3842 64.2165 60.8634 63.9904 59.3694C63.8165 58.2208 63.8132 57.1537 63.8132 57.1439C63.8132 56.448 63.249 55.8839 62.5532 55.8839H57.6625C57.3148 55.8839 56.9826 56.0276 56.7444 56.2809C56.5063 56.5342 56.3834 56.8746 56.4049 57.2217C56.4598 58.1097 56.2996 59.6805 55.7814 60.2317C55.6727 60.3473 55.5701 60.3903 55.4029 60.3903C55.26 60.3903 55.1809 60.3572 55.0895 60.259C54.5936 59.7262 54.4588 58.1405 54.5236 57.2389C54.5501 56.8892 54.4296 56.5443 54.1911 56.2872C53.9527 56.03 53.6179 55.8839 53.2672 55.8839H36.6295C36.6212 55.8838 36.6128 55.8838 36.6045 55.8839H22.0176C22.0114 55.8838 22.0052 55.8839 21.9991 55.8839H14.4787C12.7307 55.8839 11.2539 54.7498 11.2539 53.4075C11.2539 52.0652 12.7307 50.9312 14.4787 50.9312H69.5212C71.2693 50.9312 72.7461 52.0652 72.7461 53.4075C72.7461 54.7498 71.2693 55.8839 69.5212 55.8839Z" fill="#FF8000"/>
</svg>
