<svg width="70" height="70" viewBox="0 0 70 70" fill="none" xmlns="http://www.w3.org/2000/svg">
<path d="M19.1406 34.4531C18.4844 34.4531 18.0469 34.8906 18.0469 35.5469C18.0469 39.8125 21.4375 43.2031 25.7031 43.2031C27.0156 43.2031 28.5469 43.8594 29.5312 44.8437C31.0625 46.2656 33.0312 47.0312 35 47.0312C36.9687 47.0312 38.9375 46.2656 40.4687 44.8437C41.4531 43.75 42.7656 43.2031 44.2969 43.2031C48.5625 43.2031 51.9531 39.8125 51.9531 35.5469C51.9531 34.2344 52.6094 32.7031 53.5937 31.7187C56.5469 28.6562 56.5469 23.8437 53.5937 20.8906C52.5 19.9062 51.9531 18.5937 51.9531 17.0625C51.9531 12.7969 48.5625 9.40624 44.2969 9.40624C42.9844 9.40624 41.4531 8.74999 40.4687 7.76561C39.0469 6.34374 37.1875 5.46874 35.1094 5.46874C33.0312 5.35936 31.0625 6.23436 29.5312 7.76561C28.5469 8.85936 27.2344 9.40624 25.7031 9.40624C21.4375 9.40624 18.0469 12.7969 18.0469 17.0625C18.0469 18.375 17.3906 19.9062 16.4062 20.8906C13.4531 23.9531 13.4531 28.7656 16.4062 31.7187C16.8437 32.1562 17.5 32.1562 17.9375 31.7187C18.375 31.2812 18.375 30.625 17.9375 30.1875C15.8594 28.1094 15.8594 24.6094 17.9375 22.4219C19.3594 21 20.2344 18.9219 20.2344 17.0625C20.2344 14 22.6406 11.5937 25.7031 11.5937C27.7812 11.5937 29.75 10.7187 31.0625 9.29686C32.1562 8.20311 33.5781 7.65624 35 7.65624C36.4219 7.65624 37.7344 8.20311 38.8281 9.29686C40.25 10.7187 42.3281 11.5937 44.1875 11.5937C47.25 11.5937 49.6562 14 49.6562 17.0625C49.6562 19.1406 50.5312 21.1094 51.9531 22.4219C54.0312 24.5 54.0312 28 51.9531 30.1875C50.5312 31.6094 49.6562 33.6875 49.6562 35.5469C49.6562 38.6094 47.25 41.0156 44.1875 41.0156C42.1094 41.0156 40.1406 41.8906 38.8281 43.3125C36.75 45.3906 33.25 45.3906 31.0625 43.3125C29.6406 41.8906 27.5625 41.0156 25.7031 41.0156C22.6406 41.0156 20.2344 38.6094 20.2344 35.5469C20.2344 34.8906 19.7969 34.4531 19.1406 34.4531Z" fill="#FF8000"/>
<path d="M60.1562 26.25C60.1562 24.9375 60.0469 23.5156 59.8281 22.2031C59.7188 21.6562 59.1719 21.2188 58.625 21.3281C58.0781 21.4375 57.6406 21.9844 57.75 22.5312C57.9688 23.7344 58.0781 25.0469 58.0781 26.25C58.0781 38.9375 47.7969 49.2188 35.1094 49.2188C22.4219 49.2188 12.1406 38.9375 12.1406 26.25C12.1406 13.5625 22.4219 3.28125 35.1094 3.28125C41.8906 3.28125 48.2344 6.23438 52.6094 11.4844C53.0469 11.9219 53.7031 12.0312 54.1406 11.5938C54.5781 11.1562 54.6875 10.5 54.25 10.0625C49.4375 4.375 42.4375 1.09375 35 1.09375C21.1094 1.09375 9.84375 12.3594 9.84375 26.25C9.84375 40.1406 21.1094 51.4062 35 51.4062C48.8906 51.4062 60.1562 40.1406 60.1562 26.25Z" fill="#FF8000"/>
<path d="M56.5469 18.2656C56.6562 18.7031 57.3125 19.1406 57.8594 18.9219C58.4062 18.7031 58.7344 18.0469 58.5156 17.5C58.1875 16.7344 57.8594 15.8594 57.5312 15.2031C57.3125 14.6562 56.6562 14.4375 56.1094 14.6562C55.5625 14.875 55.3438 15.5312 55.5625 16.0781C56 16.8437 56.2188 17.5 56.5469 18.2656ZM59.1719 56.6562L56.875 56.3281C56.4375 56.2187 55.8906 56.5469 55.7812 56.9844L52.3906 65.0781L44.8438 51.9531C44.5156 51.4062 43.8594 51.2969 43.3125 51.5156C42.7656 51.8437 42.6562 52.5 42.875 53.0469L51.5156 68.0312C51.7344 68.3594 52.0625 68.5781 52.5 68.5781C52.5 68.5781 53.1562 68.5781 53.5938 67.9219L57.5312 58.625L59.0625 58.8437C59.7188 58.9531 60.1562 58.5156 60.2656 57.8594C60.2656 57.2031 59.8281 56.6562 59.1719 56.6562ZM68.6875 58.1875L59.2812 41.8906C58.9531 41.3437 58.2969 41.2344 57.75 41.4531C57.2031 41.7812 57.0938 42.4375 57.3125 42.9844L65.625 57.4219L63.6562 57.2031C63 57.0937 62.5625 57.5312 62.4531 58.1875C62.3437 58.7344 62.7812 59.2812 63.4375 59.3906L67.7031 59.9375C68.0312 59.9375 68.3594 59.7187 68.5781 59.5C68.7969 58.9531 68.9062 58.5156 68.6875 58.1875ZM26.5781 51.625C26.0312 51.2969 25.375 51.5156 25.0469 52.0625L17.5 65.1875L14 57.0937C13.7812 56.6562 13.3438 56.3281 12.9062 56.4375L4.26562 57.4219L12.7969 42.6562C13.125 42.1094 12.9062 41.4531 12.3594 41.125C11.8125 40.7969 11.1562 41.0156 10.8281 41.5625L1.20312 58.1875C0.984375 58.5156 0.984375 58.9531 1.20312 59.3906C1.42188 59.7187 1.85937 59.9375 2.29687 59.8281L12.3594 58.625L16.4062 67.9219C16.5156 68.25 17.0625 68.5781 17.5 68.5781C17.9375 68.5781 18.2656 68.3594 18.4844 68.0312L27.125 53.0469C27.2344 52.6094 27.125 51.8437 26.5781 51.625ZM24.8281 27.6719C24.3906 27.2344 23.7344 27.2344 23.2969 27.6719C22.8594 28.1094 22.8594 28.7656 23.2969 29.2031L29.8594 35.7656C30.0781 35.9844 30.4062 36.0937 30.625 36.0937C30.8438 36.0937 31.1719 35.9844 31.3906 35.7656L46.7031 20.4531C47.1406 20.0156 47.1406 19.3594 46.7031 18.9219C46.2656 18.4844 45.6094 18.4844 45.1719 18.9219L30.625 33.4687L24.8281 27.6719Z" fill="#FF8000"/>
<path d="M10.8281 53.4844C11.375 54.0312 12.1406 53.375 12.3594 53.0469L14.9844 48.6719C15.3125 48.125 15.0937 47.4687 14.6562 47.1406C14.1094 46.8125 13.4531 47.0312 13.125 47.4687L10.5 51.8437C10.1719 52.5 10.2812 53.1562 10.8281 53.4844ZM48.7812 51.5156C48.2344 51.8437 48.125 52.5 48.3438 53.0469L51.5156 58.5156C51.7344 58.8437 52.2812 59.3906 53.0469 58.9531C53.5938 58.625 53.7031 57.9687 53.4844 57.4219L50.3125 51.9531C49.9844 51.4062 49.3281 51.2969 48.7812 51.5156ZM36.75 14.4375C36.75 14.4375 37.9531 14.6562 38.1719 13.4531C38.3906 12.4688 37.0781 12.25 37.0781 12.25C36.4219 12.1406 35.7656 12.0312 35 12.0312C34.3438 12.0312 33.9062 12.4687 33.9062 13.125C33.9062 13.7812 34.3438 14.2187 35 14.2187C35.5469 14.2187 36.0937 14.3281 36.75 14.4375ZM30.2969 12.9063C26.25 14.2188 22.9687 17.5 21.6562 21.5469C21.4375 22.0938 21.7656 22.75 22.3125 22.9687C22.75 23.1875 23.5156 22.75 23.625 22.3125C24.8281 18.9219 27.5625 16.1875 30.9531 14.9844C31.5 14.7656 31.8281 14.1094 31.6094 13.5625C31.5 12.9062 30.8438 12.6875 30.2969 12.9063Z" fill="#FF8000"/>
</svg>
